<?xml version="1.0" encoding="iso-8859-1"?>
<!-- Generator: Adobe Illustrator 19.0.0, SVG Export Plug-In . SVG Version: 6.00 Build 0)  -->
<svg version="1.1" id="Layer_1" xmlns="http://www.w3.org/2000/svg" xmlns:xlink="http://www.w3.org/1999/xlink" x="0px" y="0px"
	 viewBox="0 0 512 512" style="enable-background:new 0 0 512 512;" xml:space="preserve">
<path style="fill:#999999;" d="M420.447,218.62v239.815c0,29.592-23.987,53.566-53.566,53.566H145.106
	c-29.579,0-53.553-23.974-53.553-53.566V218.62c0-42.178,34.187-76.366,76.366-76.366h7.385V74.839h161.379v67.415h7.398
	C386.259,142.254,420.447,176.441,420.447,218.62z"/>
<g>
	<path style="fill:#808080;" d="M193.686,74.839v67.415h-4.671c-26.638,0-48.226,34.187-48.226,76.366v239.815
		c0,29.592,15.137,53.566,33.821,53.566h-29.503c-29.579,0-53.553-23.974-53.553-53.566V218.62
		c0-42.178,34.187-76.366,76.366-76.366h7.385V74.839H193.686z"/>
	<rect x="175.304" y="74.838" style="fill:#808080;" width="161.379" height="30.299"/>
</g>
<path style="fill:#5DACD8;" d="M337.715,81.148H174.279c-22.408,0-40.574-18.165-40.574-40.574l0,0
	C133.705,18.165,151.871,0,174.279,0h163.435c22.408,0,40.574,18.165,40.574,40.574l0,0
	C378.287,62.982,360.122,81.148,337.715,81.148z"/>
<path style="fill:#4C9CBF;" d="M224.955,81.151H174.28c-22.408,0-40.575-18.167-40.575-40.575c0-11.198,4.545-21.348,11.88-28.695
	c7.347-7.335,17.498-11.88,28.695-11.88h50.675c-11.198,0-21.348,4.545-28.695,11.88c-7.335,7.347-11.88,17.498-11.88,28.695
	C184.38,62.985,202.547,81.151,224.955,81.151z"/>
<path style="fill:#8ED7E0;" d="M255.996,186.711L255.996,186.711c-56.424,0-102.164,45.74-102.164,102.164v61.533
	c0,22.44,18.191,40.631,40.631,40.631h0.117v35.754h122.83v-35.754h0.117c22.44,0,40.631-18.191,40.631-40.631v-61.533
	C358.16,232.452,312.42,186.711,255.996,186.711z"/>
<g>
	<circle style="fill:#4D4D4D;" cx="214.099" cy="328.918" r="26.047"/>
	<circle style="fill:#4D4D4D;" cx="297.901" cy="328.918" r="26.047"/>
	<path style="fill:#4D4D4D;" d="M255.996,393.71c-5.229,0-9.468-4.239-9.468-9.468v-14.555c0-5.229,4.239-9.468,9.468-9.468
		c5.229,0,9.468,4.239,9.468,9.468v14.555C265.465,389.47,261.225,393.71,255.996,393.71z"/>
</g>
<g>
</g>
<g>
</g>
<g>
</g>
<g>
</g>
<g>
</g>
<g>
</g>
<g>
</g>
<g>
</g>
<g>
</g>
<g>
</g>
<g>
</g>
<g>
</g>
<g>
</g>
<g>
</g>
<g>
</g>
</svg>
